<?xml version="1.0" encoding="utf-8"?>
<!-- Generator: Adobe Illustrator 26.0.3, SVG Export Plug-In . SVG Version: 6.00 Build 0)  -->
<svg version="1.1" id="Layer_1" xmlns="http://www.w3.org/2000/svg" xmlns:xlink="http://www.w3.org/1999/xlink" x="0px" y="0px"
	 viewBox="0 0 56.78 50" style="enable-background:new 0 0 56.78 50;" xml:space="preserve">
<style type="text/css">
	.st0{fill:#F37F20;}
	.st1{fill:#E76524;}
	.st2{fill:#E25D26;}
	.st3{fill:#F3BD46;}
	.st4{opacity:0.85;fill:#F37F20;}
</style>
<g>
	<g>
		<path class="st0" d="M11.19,7.13c6.67,2.61,9.17,3.3,16.1,4.64c4.65,0.89,17.47,4.4,23.24,0.15c6.16-4.54,0.62-6.85-3.19-4.06
			c-4.82,3.52-7.54,7.83-8.7,13.63c-1.16,5.22-3.77,13.63-2.61,19.14c1.74,6.67,16.24,12.47,15.08,1.74
			c-1.45-12.47-23-14.53-31.9-11.89c-2.17,0.64-16.24,8.41-10.15,12.76c2.83,2.02,6.97-0.88,8.7-2.61c3.48-2.9,4.06-7.25,4.35-11.31
			c0.26-6.91,0.29-12.86-2.17-18.94c-0.22-0.55-0.46-1.1-0.73-1.65c-2.03-4.35-4.93-7.25-9.86-7.83C5.86,0.61,6.46,5.69,11.19,7.13"
			/>
	</g>
	<g>
		<g>
			<path class="st1" d="M19.81,10.12c-0.19-0.46-0.39-0.92-0.62-1.39c-0.25-0.54-0.52-1.06-0.8-1.55c-1.86-0.59-3.84-1.32-6.46-2.35
				c-2.32-0.7-3.64-2.29-3.98-3.68c-1.79,1.03-0.73,4.78,3.23,5.98C14.84,8.57,17.24,9.42,19.81,10.12
				C19.81,10.12,19.81,10.12,19.81,10.12z"/>
		</g>
		<g>
			<path class="st1" d="M18.5,38.34c-1.73,1.73-5.88,4.63-8.7,2.61c-1.05-0.75-1.5-1.6-1.52-2.49c-1.07,1.72-1.15,3.42,0.76,4.79
				c2.83,2.02,6.97-0.88,8.7-2.61c2.04-1.7,3.08-3.9,3.65-6.25C20.77,35.86,19.86,37.21,18.5,38.34z"/>
		</g>
		<g>
			<path class="st1" d="M51.27,9.63c-2.04,1.5-4.96,2.03-8.08,2.05c-0.62,0.73-1.17,1.49-1.67,2.29c3.47,0.08,6.76-0.4,9-2.04
				c2.35-1.73,3-3.14,2.69-4.06C52.76,8.4,52.13,8.99,51.27,9.63z"/>
		</g>
		<g>
			<path class="st1" d="M36.77,38.34c-0.47-2.24-0.32-4.95,0.1-7.73c-0.12-0.01-0.23-0.02-0.35-0.03c-0.7,3.57-1.11,7.2-0.51,10.06
				c1.62,6.21,14.31,11.67,15.11,3.72C48.21,48.69,38.2,43.81,36.77,38.34z"/>
		</g>
	</g>
	<path class="st1" d="M19.93,10.38c0,0,7.44,22.46,17.31,16.94l-0.68,3.11c0,0-6-1.63-14.5-0.57
		C22.07,29.86,23.24,17.34,19.93,10.38z"/>
	<path class="st2" d="M21.96,18.54c0,0,2.5,8.54,9.3,10.55l1.76,0.73c0,0-4.61-0.75-10.99,0.05C22.03,29.87,22.52,24.6,21.96,18.54z
		"/>
	<path class="st3" d="M25.47,11.41c0,0,12.57,3.59,15.56,2.78c0,0-1.96,3.77-2.19,6.43c0,0,0.66-3.3,2.69-6.65
		C41.52,13.96,35.84,13.99,25.47,11.41z"/>
	<path class="st4" d="M50.05,6.71c0,0,2.6-0.49,3.19,1.23C53.24,7.94,52.59,6.52,50.05,6.71z"/>
	<path class="st2" d="M41.52,13.96c0,0,4.99,0.22,7.53-1.19c0,0,1.44-0.58,2.99-2.16C52.04,10.62,48.79,13.26,41.52,13.96z"/>
	<path class="st3" d="M11.26,1.26c-0.02,0,0.83,2.54,4.63,2.61C15.89,3.87,14.26,2.09,11.26,1.26z"/>
	<path class="st3" d="M49.49,8.14c0.09,0.19,0.59,0.15,1.11-0.1s0.88-0.59,0.8-0.78s-0.59-0.15-1.11,0.1
		C49.76,7.6,49.41,7.95,49.49,8.14z"/>
	<path class="st3" d="M16.02,32.03c0,0-1.35,6.05-5.86,4.22C10.16,36.25,13.46,33.35,16.02,32.03z"/>
	<path class="st3" d="M49.28,39.61c0.6,1.23,0.92,2.48,0.08,2.89c-0.84,0.41-1.63-0.24-2.68-1.66c-0.81-1.1-1.71-4.15-0.87-4.56
		C46.65,35.87,48.68,38.39,49.28,39.61z"/>
	<path class="st2" d="M19.81,10.12c0,0-4.71-1.28-8.63-2.99c0,0-1.1-0.35-1.66-0.74c0,0,8.8,3.16,9.38,3.06
		C19.48,9.36,19.81,10.12,19.81,10.12z"/>
	<path class="st2" d="M8.7,42.98c0,0,0.95,1,2.63,0.96c0,0,1.2-0.05,1.98-0.4C13.3,43.54,10.66,44.23,8.7,42.98z"/>
	<path class="st2" d="M41.56,46.79c-0.14-0.06,2.57,1.67,5.77,1.53c0,0,1.58-0.1,2.54-1.08C49.87,47.24,46.92,49.14,41.56,46.79z"/>
</g>
</svg>
